<mxfile host="app.diagrams.net" modified="2021-04-09T02:24:30.470Z" agent="5.0 (Windows NT 10.0; Win64; x64) AppleWebKit/537.36 (KHTML, like Gecko) Chrome/89.0.4389.114 Safari/537.36" etag="E0bJWGIpUm_0XFrpvm83" version="14.5.8" type="github">
  <diagram name="Page-1" id="197159a0-c6a4-9194-75a8-e4174976684c">
    <mxGraphModel dx="3175.5" dy="762" grid="1" gridSize="10" guides="1" tooltips="1" connect="1" arrows="1" fold="1" page="1" pageScale="1.5" pageWidth="1169" pageHeight="826" background="none" math="0" shadow="0">
      <root>
        <mxCell id="0" style=";html=1;" />
        <mxCell id="1" style=";html=1;" parent="0" />
        <mxCell id="1257a543d1cacc4b-52" value="云平台节点特殊网络需求" style="text;strokeColor=none;fillColor=none;html=1;fontSize=24;fontStyle=1;verticalAlign=middle;align=center;" parent="1" vertex="1">
          <mxGeometry x="160" y="60" width="1420" height="40" as="geometry" />
        </mxCell>
        <mxCell id="iEw7656S64yrgNW09MVD-2" value="基本说明" style="swimlane;fontStyle=0;childLayout=stackLayout;horizontal=1;startSize=26;fillColor=none;horizontalStack=0;resizeParent=1;resizeParentMax=0;resizeLast=0;collapsible=1;marginBottom=0;" vertex="1" parent="1">
          <mxGeometry x="1300" y="110" width="340" height="130" as="geometry" />
        </mxCell>
        <mxCell id="iEw7656S64yrgNW09MVD-3" value="1. 配置vlan支持" style="text;strokeColor=none;fillColor=none;align=left;verticalAlign=top;spacingLeft=4;spacingRight=4;overflow=hidden;rotatable=0;points=[[0,0.5],[1,0.5]];portConstraint=eastwest;" vertex="1" parent="iEw7656S64yrgNW09MVD-2">
          <mxGeometry y="26" width="340" height="26" as="geometry" />
        </mxCell>
        <mxCell id="iEw7656S64yrgNW09MVD-4" value="2. 配置动态聚合" style="text;strokeColor=none;fillColor=none;align=left;verticalAlign=top;spacingLeft=4;spacingRight=4;overflow=hidden;rotatable=0;points=[[0,0.5],[1,0.5]];portConstraint=eastwest;" vertex="1" parent="iEw7656S64yrgNW09MVD-2">
          <mxGeometry y="52" width="340" height="78" as="geometry" />
        </mxCell>
        <mxCell id="iEw7656S64yrgNW09MVD-12" value="" style="pointerEvents=1;shadow=0;dashed=0;html=1;strokeColor=none;fillColor=#4495D1;labelPosition=center;verticalLabelPosition=bottom;verticalAlign=top;align=center;outlineConnect=0;shape=mxgraph.veeam.virtual_host;" vertex="1" parent="1">
          <mxGeometry x="230" y="270" width="290" height="230" as="geometry" />
        </mxCell>
        <mxCell id="iEw7656S64yrgNW09MVD-14" value="" style="pointerEvents=1;shadow=0;dashed=0;html=1;strokeColor=none;fillColor=#4495D1;labelPosition=center;verticalLabelPosition=bottom;verticalAlign=top;align=center;outlineConnect=0;shape=mxgraph.veeam.2d.switch;" vertex="1" parent="1">
          <mxGeometry x="250" y="680" width="270" height="70" as="geometry" />
        </mxCell>
        <mxCell id="iEw7656S64yrgNW09MVD-16" value="" style="pointerEvents=1;shadow=0;dashed=0;html=1;strokeColor=none;fillColor=#4495D1;labelPosition=center;verticalLabelPosition=bottom;verticalAlign=top;align=center;outlineConnect=0;shape=mxgraph.veeam.2d.switch;" vertex="1" parent="1">
          <mxGeometry x="1010" y="680" width="270" height="70" as="geometry" />
        </mxCell>
        <mxCell id="iEw7656S64yrgNW09MVD-17" value="" style="line;strokeWidth=2;direction=south;html=1;" vertex="1" parent="1">
          <mxGeometry x="310" y="500" width="10" height="180" as="geometry" />
        </mxCell>
        <mxCell id="iEw7656S64yrgNW09MVD-18" value="" style="line;strokeWidth=2;direction=south;html=1;" vertex="1" parent="1">
          <mxGeometry x="1060" y="500" width="10" height="180" as="geometry" />
        </mxCell>
        <mxCell id="iEw7656S64yrgNW09MVD-21" value="" style="shape=crossbar;whiteSpace=wrap;html=1;rounded=1;direction=south;" vertex="1" parent="1">
          <mxGeometry x="370" y="500" width="30" height="180" as="geometry" />
        </mxCell>
        <mxCell id="iEw7656S64yrgNW09MVD-22" value="" style="shape=crossbar;whiteSpace=wrap;html=1;rounded=1;direction=south;" vertex="1" parent="1">
          <mxGeometry x="410" y="500" width="20" height="180" as="geometry" />
        </mxCell>
        <mxCell id="iEw7656S64yrgNW09MVD-23" value="" style="shape=crossbar;whiteSpace=wrap;html=1;rounded=1;direction=south;" vertex="1" parent="1">
          <mxGeometry x="1150" y="500" width="20" height="180" as="geometry" />
        </mxCell>
        <mxCell id="iEw7656S64yrgNW09MVD-25" value="" style="shape=crossbar;whiteSpace=wrap;html=1;rounded=1;direction=south;" vertex="1" parent="1">
          <mxGeometry x="1180" y="500" width="20" height="180" as="geometry" />
        </mxCell>
        <mxCell id="iEw7656S64yrgNW09MVD-28" value="&lt;table border=&quot;1&quot; width=&quot;100%&quot; cellpadding=&quot;4&quot; style=&quot;width: 100% ; height: 100% ; border-collapse: collapse&quot;&gt;&lt;tbody&gt;&lt;tr&gt;&lt;th align=&quot;center&quot;&gt;Bond 配置&lt;/th&gt;&lt;/tr&gt;&lt;tr&gt;&lt;td align=&quot;center&quot;&gt;计算节点检查网卡支持情况&lt;br&gt;占用两个网口，配置bond(mode=4)&lt;/td&gt;&lt;/tr&gt;&lt;tr&gt;&lt;td align=&quot;center&quot;&gt;交换机端口配置&lt;br&gt;支持动态链路聚合（&lt;strong style=&quot;margin: 0px ; padding: 0px ; color: rgb(51 , 51 , 51) ; font-family: &amp;#34;pingfang sc&amp;#34; , &amp;#34;microsoft yahei&amp;#34; , &amp;#34;helvetica neue&amp;#34; , &amp;#34;helvetica&amp;#34; , &amp;#34;arial&amp;#34; , sans-serif ; font-size: 14px ; background-color: rgb(255 , 255 , 255)&quot;&gt;802.3ad&lt;/strong&gt;）&lt;br&gt;&lt;/td&gt;&lt;/tr&gt;&lt;/tbody&gt;&lt;/table&gt;" style="text;html=1;strokeColor=none;fillColor=none;overflow=fill;" vertex="1" parent="1">
          <mxGeometry x="520" y="510" width="250" height="140" as="geometry" />
        </mxCell>
        <mxCell id="iEw7656S64yrgNW09MVD-29" value="&lt;table border=&quot;1&quot; width=&quot;100%&quot; cellpadding=&quot;4&quot; style=&quot;width: 100% ; height: 100% ; border-collapse: collapse&quot;&gt;&lt;tbody&gt;&lt;tr&gt;&lt;th align=&quot;center&quot;&gt;VLAN配置&lt;/th&gt;&lt;/tr&gt;&lt;tr&gt;&lt;td align=&quot;center&quot;&gt;计算节点不做特殊处理&lt;/td&gt;&lt;/tr&gt;&lt;tr&gt;&lt;td align=&quot;center&quot;&gt;交换机对应连接端口配置为trunk模式&lt;br&gt;允许vlanid 1- 4094 的包通过&lt;/td&gt;&lt;/tr&gt;&lt;/tbody&gt;&lt;/table&gt;" style="text;html=1;strokeColor=none;fillColor=none;overflow=fill;" vertex="1" parent="1">
          <mxGeometry x="-50" y="510" width="280" height="140" as="geometry" />
        </mxCell>
        <mxCell id="iEw7656S64yrgNW09MVD-30" value="" style="edgeStyle=elbowEdgeStyle;elbow=horizontal;endArrow=classic;html=1;exitX=0;exitY=0.5;exitDx=0;exitDy=0;" edge="1" parent="1" source="iEw7656S64yrgNW09MVD-28" target="iEw7656S64yrgNW09MVD-22">
          <mxGeometry width="50" height="50" relative="1" as="geometry">
            <mxPoint x="710" y="640" as="sourcePoint" />
            <mxPoint x="760" y="590" as="targetPoint" />
          </mxGeometry>
        </mxCell>
        <mxCell id="iEw7656S64yrgNW09MVD-31" value="" style="edgeStyle=elbowEdgeStyle;elbow=horizontal;endArrow=classic;html=1;exitX=1;exitY=0.5;exitDx=0;exitDy=0;" edge="1" parent="1" source="iEw7656S64yrgNW09MVD-29" target="iEw7656S64yrgNW09MVD-17">
          <mxGeometry width="50" height="50" relative="1" as="geometry">
            <mxPoint x="80" y="430" as="sourcePoint" />
            <mxPoint x="130" y="380" as="targetPoint" />
          </mxGeometry>
        </mxCell>
        <mxCell id="iEw7656S64yrgNW09MVD-34" value="" style="shape=partialRectangle;whiteSpace=wrap;html=1;bottom=1;right=1;left=1;top=0;fillColor=none;routingCenterX=-0.5;" vertex="1" parent="1">
          <mxGeometry x="390" y="750" width="760" height="180" as="geometry" />
        </mxCell>
        <mxCell id="iEw7656S64yrgNW09MVD-36" value="" style="pointerEvents=1;shadow=0;dashed=0;html=1;strokeColor=none;fillColor=#4495D1;labelPosition=center;verticalLabelPosition=bottom;verticalAlign=top;align=center;outlineConnect=0;shape=mxgraph.veeam.server;" vertex="1" parent="1">
          <mxGeometry x="970" y="400" width="290" height="100" as="geometry" />
        </mxCell>
        <mxCell id="iEw7656S64yrgNW09MVD-37" value="裸金属主机" style="whiteSpace=wrap;html=1;rounded=1;arcSize=50;align=center;verticalAlign=middle;strokeWidth=1;autosize=1;spacing=4;treeFolding=1;treeMoving=1;newEdgeStyle={&quot;edgeStyle&quot;:&quot;entityRelationEdgeStyle&quot;,&quot;startArrow&quot;:&quot;none&quot;,&quot;endArrow&quot;:&quot;none&quot;,&quot;segment&quot;:10,&quot;curved&quot;:1};" vertex="1" parent="1">
          <mxGeometry x="1370" y="375" width="120" height="55" as="geometry" />
        </mxCell>
        <mxCell id="iEw7656S64yrgNW09MVD-38" value="" style="edgeStyle=entityRelationEdgeStyle;startArrow=none;endArrow=none;segment=10;curved=1;" edge="1" target="iEw7656S64yrgNW09MVD-37" parent="1" source="iEw7656S64yrgNW09MVD-36">
          <mxGeometry relative="1" as="geometry">
            <mxPoint x="760" y="530" as="sourcePoint" />
          </mxGeometry>
        </mxCell>
        <mxCell id="iEw7656S64yrgNW09MVD-39" value="计算节点" style="whiteSpace=wrap;html=1;rounded=1;arcSize=50;align=center;verticalAlign=middle;strokeWidth=1;autosize=1;spacing=4;treeFolding=1;treeMoving=1;newEdgeStyle={&quot;edgeStyle&quot;:&quot;entityRelationEdgeStyle&quot;,&quot;startArrow&quot;:&quot;none&quot;,&quot;endArrow&quot;:&quot;none&quot;,&quot;segment&quot;:10,&quot;curved&quot;:1};" vertex="1" parent="1">
          <mxGeometry x="585" y="315" width="135" height="45" as="geometry" />
        </mxCell>
        <mxCell id="iEw7656S64yrgNW09MVD-40" value="" style="edgeStyle=entityRelationEdgeStyle;startArrow=none;endArrow=none;segment=10;curved=1;" edge="1" target="iEw7656S64yrgNW09MVD-39" parent="1">
          <mxGeometry relative="1" as="geometry">
            <mxPoint x="520" y="350" as="sourcePoint" />
          </mxGeometry>
        </mxCell>
        <UserObject label="和计算节点相同配置" treeRoot="1" id="iEw7656S64yrgNW09MVD-42">
          <mxCell style="whiteSpace=wrap;html=1;align=center;treeFolding=1;treeMoving=1;newEdgeStyle={&quot;edgeStyle&quot;:&quot;elbowEdgeStyle&quot;,&quot;startArrow&quot;:&quot;none&quot;,&quot;endArrow&quot;:&quot;none&quot;};" vertex="1" parent="1">
            <mxGeometry x="1290" y="520" width="180" height="110" as="geometry" />
          </mxCell>
        </UserObject>
      </root>
    </mxGraphModel>
  </diagram>
</mxfile>
